PathFileType	4	(X/Y/Z)	1H_nor_fast_left.trc
DataRate	CameraRate	NumFrames	NumMarkers	Units	OrigDataRate	OrigDataStartFrame	OrigNumFrames
250.00	250.00	19	18	mm	250.00	4764	7622
Frame#	Time	c7	r_should	r_elb_m	clavicle	r_upa	r_wri_m	l_upa	l_elb_l	l_low	l_wri_l	l_met	l_elb_m	r_elb_l	l_should	r_low	r_wri_l	r_met	l_wri_m
	X1	Y1	Z1	X2	Y2	Z2	X3	Y3	Z3	X4	Y4	Z4	X5	Y5	Z5	X6	Y6	Z6	X7	Y7	Z7	X8	Y8	Z8	X9	Y9	Z9	X10	Y10	Z10	X11	Y11	Z11	X12	Y12	Z12	X13	Y13	Z13	X14	Y14	Z14	X15	Y15	Z15	X16	Y16	Z16	X17	Y17	Z17	X18	Y18	Z18
4764	19.05200	1109.61169	1426.77087	137.26787	1145.45715	1357.88599	310.45786	1091.62427	1023.61371	316.41782	1220.86816	1288.52490	146.44670	nan	nan	nan	1137.56848	791.09265	394.32748	1176.38147	1161.40088	-101.84574	1184.63220	1054.24219	-121.64274	1188.97766	933.01251	-106.30824	1195.89758	820.76343	-64.79050	1215.34106	749.24829	-103.79366	1101.42871	1044.71179	-64.49147	1166.85083	1049.80444	370.65677	1166.33838	1364.33081	-27.48965	1183.58130	913.61810	360.68579	1191.21777	788.82428	341.80289	1217.85144	728.36426	382.62750	1130.81030	808.26868	-108.14562
4765	19.05600	1109.71521	1426.78528	137.39948	1145.59326	1357.79199	310.51630	1091.63562	1023.54681	316.45523	1220.76367	1288.66040	146.30949	nan	nan	nan	1137.62537	790.99915	394.28879	1176.37622	1161.47095	-102.79218	1184.52063	1054.67163	-122.00964	1189.01318	933.44629	-106.57295	1196.05249	821.30878	-64.87991	1215.54968	749.75769	-103.70930	1101.30615	1045.10999	-65.06924	1166.88257	1049.72278	370.53787	1166.32520	1364.51123	-27.38774	1183.62061	913.53290	360.65332	1191.25513	788.73218	341.74722	1217.90356	728.27271	382.53467	1130.97925	808.67767	-108.19985
4766	19.06000	1109.80737	1426.80371	137.53583	1145.72107	1357.69971	310.58868	1091.64648	1023.47650	316.48969	1220.76526	1288.66882	146.26964	nan	nan	nan	1137.67920	790.90594	394.24466	1176.34131	1161.77759	-103.21180	1184.40222	1055.11560	-122.37486	1189.07324	933.93817	-106.81613	1196.28784	821.93927	-64.92526	1215.80933	750.28357	-103.58614	1101.15430	1045.51147	-65.65269	1166.93982	1049.61926	370.51428	1166.28699	1364.70459	-27.27916	1183.66199	913.43311	360.63226	1191.28198	788.64417	341.68695	1217.95532	728.17529	382.44196	1131.20422	809.10626	-108.24424
4767	19.06400	1109.88562	1426.83093	137.67955	1145.84595	1357.60547	310.66397	1091.67517	1023.39697	316.51236	1221.11633	1288.22961	146.56253	nan	nan	nan	1137.73853	790.80591	394.19250	1176.29260	1162.15369	-103.50103	1184.30017	1055.57776	-122.74680	1189.15540	934.49078	-107.05789	1196.54065	822.60645	-64.92749	1216.13818	750.83173	-103.42391	1101.00623	1045.93237	-66.26725	1167.04480	1049.49390	370.71786	1166.23181	1364.91272	-27.17091	1183.71326	913.33258	360.60092	1191.31592	788.55524	341.61108	1218.00488	728.06915	382.34454	1131.47070	809.57007	-108.25132
4768	19.06800	1109.95679	1426.85535	137.82736	1145.96802	1357.50037	310.73465	1091.73523	1023.30542	316.51962	1221.55750	1287.67969	146.93153	nan	nan	nan	1137.81042	790.70129	394.13333	1176.22839	1162.55383	-103.77838	1184.19495	1056.07166	-123.14397	1189.25256	935.05920	-107.30354	1196.78503	823.28064	-64.90813	1216.53394	751.41058	-103.21335	1100.89111	1046.35278	-66.88776	1167.18176	1049.36389	370.98193	1166.17712	1365.12512	-27.06607	1183.76648	913.23645	360.56116	1191.35547	788.46130	341.52936	1218.05627	727.96112	382.23962	1131.76270	810.05261	-108.22604
4769	19.07200	1110.02649	1426.87817	137.98517	1146.08606	1357.39111	310.80997	1091.78613	1023.20837	316.52612	1221.35413	1287.93359	146.72415	nan	nan	nan	1137.88745	790.58923	394.07745	1176.15710	1162.96265	-104.05373	1184.08032	1056.58069	-123.56133	1189.36377	935.59973	-107.52971	1197.08252	823.94495	-64.87775	1216.97510	752.02252	-102.95346	1100.78540	1046.77197	-67.51320	1167.19312	1049.28088	370.60291	1166.11499	1365.33276	-26.95626	1183.82837	913.12787	360.51190	1191.39722	788.36475	341.44193	1218.11157	727.84436	382.12741	1132.10339	810.53638	-108.16355
4770	19.07600	1110.09521	1426.89661	138.15915	1146.20166	1357.27881	310.90384	1091.82886	1023.10956	316.54575	1221.64172	1287.56262	146.97664	nan	nan	nan	1137.95825	790.46960	394.02515	1176.08337	1163.37683	-104.32798	1183.96704	1057.08850	-123.95792	1189.48694	936.12976	-107.72556	1197.43750	824.65601	-64.80233	1217.45557	752.67316	-102.64716	1100.63342	1047.20544	-68.15987	1167.25977	1049.16711	370.49292	1166.03406	1365.53650	-26.82949	1183.89417	913.00543	360.46262	1191.44507	788.25049	341.35645	1218.16296	727.71442	382.01562	1132.48438	810.99677	-108.06622
4771	19.08000	1110.15637	1426.91357	138.34421	1146.30981	1357.16345	311.00482	1091.85718	1023.00653	316.57028	1221.39429	1287.85925	146.74483	nan	nan	nan	1138.02209	790.35010	393.97592	1176.00037	1163.79211	-104.60636	1183.85962	1057.60266	-124.30598	1189.62610	936.68951	-107.91062	1197.83838	825.43500	-64.66445	1217.98682	753.35712	-102.30811	1100.49243	1047.62207	-68.80019	1167.33838	1049.04578	370.46161	1165.93860	1365.73438	-26.69977	1183.96021	912.87817	360.41455	1191.54077	787.95026	341.02454	1218.21252	727.57550	381.90143	1132.90820	811.48914	-107.96576
4772	19.08400	1110.20947	1426.92944	138.52539	1146.41284	1357.04626	311.10965	1091.88452	1022.89941	316.58514	1221.66467	1287.49402	146.99432	nan	nan	nan	1138.08118	790.21729	393.92111	1175.91150	1164.21582	-104.88375	1183.73499	1058.12463	-124.65650	1189.77283	937.30542	-108.10231	1198.23792	826.22491	-64.52765	1218.56860	754.06647	-101.94226	1100.38757	1048.05103	-69.42126	1167.41846	1048.91882	370.43698	1165.84094	1365.93030	-26.57028	1184.02173	912.74323	360.36035	1191.70239	787.43945	340.38843	1218.26367	727.43048	381.77847	1133.39404	812.02734	-107.85757
4773	19.08800	1110.25952	1426.94348	138.70520	1146.51562	1356.92419	311.22375	1091.92773	1022.78998	316.59131	1221.40063	1287.78552	146.76195	nan	nan	nan	1138.14355	790.08746	393.86401	1175.80444	1164.63782	-105.15480	1183.59473	1058.67566	-125.04101	1189.93921	937.96851	-108.28724	1198.68542	827.04059	-64.37614	1219.22437	754.81049	-101.53655	1100.28687	1048.51367	-70.04301	1167.50122	1048.78101	370.41742	1165.73511	1366.13013	-26.43692	1184.09204	912.59540	360.30215	1191.77026	787.22321	340.16345	1218.31238	727.27704	381.64865	1133.91272	812.55469	-107.69891
4774	19.09200	1110.30737	1426.95923	138.88602	1146.61462	1356.79675	311.33661	1091.98755	1022.67181	316.58618	1221.66101	1287.42969	147.01241	nan	nan	nan	1138.20618	789.96191	393.79816	1175.67468	1165.05371	-105.42828	1183.45679	1059.25269	-125.44698	1190.13306	938.61621	-108.45007	1199.19336	827.91010	-64.17130	1219.93298	755.57507	-101.09031	1100.17224	1048.97815	-70.68019	1167.58191	1048.63928	370.39279	1165.60974	1366.34021	-26.29843	1184.16223	912.45142	360.23505	1191.81128	787.06635	340.02472	1218.36072	727.11920	381.50668	1134.45129	813.06720	-107.48583
4775	19.09600	1110.35425	1426.97375	139.07124	1146.70679	1356.67126	311.44791	1092.05225	1022.55438	316.57709	1221.05664	1288.13159	146.46971	nan	nan	nan	1138.27039	789.81580	393.72308	1175.53540	1165.47327	-105.71262	1183.32361	1059.82971	-125.85284	1190.33691	939.23083	-108.60184	1199.69385	828.76837	-63.95972	1220.67517	756.38928	-100.59847	1100.07263	1049.44568	-71.32560	1167.67114	1048.49121	370.35550	1165.46948	1366.55359	-26.15845	1184.22864	912.31384	360.15826	1191.84399	786.91162	339.91452	1218.40674	726.95874	381.36328	1135.04199	813.59088	-107.24682
4776	19.10000	1110.39722	1426.98938	139.25737	1146.79138	1356.54724	311.55978	1092.10449	1022.43231	316.56848	1221.22864	1287.86938	146.63226	nan	nan	nan	1138.32898	789.67072	393.64542	1175.40100	1165.90637	-106.00839	1183.18579	1060.40295	-126.24687	1190.55786	939.86969	-108.74390	1200.21521	829.69617	-63.74107	1221.46790	757.26074	-100.05827	1099.98962	1049.93262	-71.97594	1167.76489	1048.34009	370.31967	1165.31763	1366.77295	-26.01128	1184.29712	912.16266	360.08072	1191.88281	786.76556	339.80948	1218.44983	726.79944	381.21292	1135.69080	814.15674	-106.97847
4777	19.10400	1110.43274	1427.00439	139.45258	1146.87695	1356.41724	311.67728	1092.16052	1022.30194	316.55634	1221.92529	1286.95728	147.27458	nan	nan	nan	1138.38281	789.52264	393.56177	1175.26770	1166.35535	-106.30602	1183.03711	1060.99316	-126.64169	1190.80151	940.58514	-108.89250	1200.78357	830.67072	-63.47964	1222.31580	758.16217	-99.46355	1099.90161	1050.40454	-72.60416	1167.86145	1048.17725	370.26743	1165.15454	1367.00195	-25.86067	1184.36694	912.00848	359.99536	1191.92126	786.63507	339.70825	1218.49487	726.63184	381.05548	1136.39978	814.75732	-106.69408
4778	19.10800	1110.46240	1427.01575	139.64850	1146.96960	1356.28650	311.79681	1092.21790	1022.16492	316.54114	1222.09265	1286.70471	147.44061	nan	nan	nan	1138.44153	789.36493	393.47028	1175.13318	1166.80774	-106.59640	1182.87793	1061.62183	-127.07324	1191.06958	941.34644	-109.00403	1201.39465	831.62531	-63.14445	1223.23096	759.09283	-98.82922	1099.78857	1050.88171	-73.26015	1167.96045	1048.01672	370.21875	1164.98425	1367.23425	-25.71212	1184.43628	911.84583	359.90399	1191.96045	786.48474	339.59918	1218.54565	726.45526	380.89175	1137.10400	815.36005	-106.39132
4779	19.11200	1110.48572	1427.02893	139.84174	1147.06714	1356.15625	311.91653	1092.28210	1022.02008	316.51825	1222.12427	1286.61865	147.48190	nan	nan	nan	1138.50269	789.19006	393.35098	1174.98584	1167.26709	-106.88541	1182.71802	1062.26099	-127.52262	1191.35217	942.10956	-109.10120	1202.05444	832.66260	-62.73934	1224.18701	760.07227	-98.16967	1099.69458	1051.36609	-73.96378	1168.05994	1047.85437	370.16971	1164.81348	1367.46436	-25.56420	1184.50183	911.68719	359.80469	1191.99731	786.31665	339.47269	1218.60388	726.28259	380.72311	1137.82764	815.99982	-106.06789
4780	19.11600	1110.50684	1427.04224	140.03362	1147.16260	1356.02185	312.02600	1092.35046	1021.87274	316.49234	1221.79077	1286.98401	147.18826	nan	nan	nan	1138.57117	789.01257	393.22992	1174.83594	1167.72717	-107.17268	1182.56470	1062.90100	-127.95679	1191.63916	942.87183	-109.20024	1202.72998	833.77673	-62.34546	1225.18018	761.10516	-97.45671	1099.62280	1051.85693	-74.65224	1168.16040	1047.68225	370.11731	1164.63757	1367.69299	-25.41662	1184.56494	911.52997	359.70718	1192.03064	786.15997	339.32895	1218.65576	726.10748	380.55292	1138.60461	816.67218	-105.71973
4781	19.12000	1110.52222	1427.05042	140.22414	1147.25708	1355.88525	312.12659	1092.41809	1021.72675	316.45901	1221.03577	1287.86133	146.51115	1161.58594	1137.97485	357.17950	1138.64355	788.83783	393.11356	1174.67993	1168.19336	-107.46821	1182.40332	1063.56885	-128.37956	1191.94116	943.67645	-109.28741	1203.43481	834.88452	-61.93287	1226.21790	762.18097	-96.69907	1099.54211	1052.36694	-75.31965	1168.25500	1047.51062	370.06195	1164.45264	1367.92688	-25.27442	1184.62061	911.37329	359.59653	1192.01074	786.16205	339.41013	1218.70337	725.92554	380.37085	1139.44531	817.34998	-105.34542
4782	19.12400	1110.53210	1427.05725	140.41745	1147.35461	1355.74365	312.22333	1092.46448	1021.58270	316.43033	1220.82312	1288.05554	146.32745	1161.30115	1138.03235	356.95383	1138.71082	788.66443	392.99194	1174.51831	1168.67322	-107.78368	1182.23621	1064.25122	-128.81956	1192.25342	944.51105	-109.39728	1204.18030	836.02966	-61.51700	1227.32300	763.28046	-95.90130	1099.45984	1052.88757	-76.01127	1168.35144	1047.34790	369.99963	1164.25806	1368.16248	-25.13310	1184.68286	911.22638	359.48074	1191.91467	786.36786	339.79388	1218.74915	725.74615	380.17896	1140.31262	818.03107	-104.90416
